<mxfile host="app.diagrams.net" modified="2023-05-06T09:26:51.413Z" agent="Mozilla/5.0 (Macintosh; Intel Mac OS X 10_15_7) AppleWebKit/537.36 (KHTML, like Gecko) Chrome/112.0.0.0 Safari/537.36" etag="XiHhs2pzlFYoLTKstw6M" version="21.2.3" type="device">
  <diagram name="Seite-1" id="DCS0E2_qDdtQx1Nb25eY">
    <mxGraphModel dx="4639" dy="3731" grid="1" gridSize="10" guides="1" tooltips="1" connect="1" arrows="1" fold="1" page="1" pageScale="1" pageWidth="1654" pageHeight="2336" math="0" shadow="0">
      <root>
        <mxCell id="0" />
        <mxCell id="1" parent="0" />
        <mxCell id="DDD5SIHI0R4ACzv8bi50-57" value="WI2_WSA994_FACTTABLE" style="swimlane;fontStyle=0;childLayout=stackLayout;horizontal=1;startSize=26;horizontalStack=0;resizeParent=1;resizeParentMax=0;resizeLast=0;collapsible=1;marginBottom=0;align=center;fontSize=14;fillColor=#FFD966;" vertex="1" parent="1">
          <mxGeometry x="617" y="260" width="420" height="278" as="geometry" />
        </mxCell>
        <mxCell id="DDD5SIHI0R4ACzv8bi50-58" value="PK, FK&amp;nbsp; &amp;nbsp; &amp;nbsp; &amp;nbsp; FT_Product_ID&amp;nbsp; &amp;nbsp; &amp;nbsp; &amp;nbsp; &amp;nbsp; &amp;nbsp; &amp;nbsp; &amp;nbsp; &amp;nbsp; &amp;nbsp; &amp;nbsp; &amp;nbsp; &amp;nbsp; &amp;nbsp; &amp;nbsp; &amp;nbsp; &amp;nbsp; VARCHAR2 (10BYTE)" style="text;strokeColor=none;fillColor=none;spacingLeft=4;spacingRight=4;overflow=hidden;rotatable=0;points=[[0,0.5],[1,0.5]];portConstraint=eastwest;fontSize=12;whiteSpace=wrap;html=1;" vertex="1" parent="DDD5SIHI0R4ACzv8bi50-57">
          <mxGeometry y="26" width="420" height="30" as="geometry" />
        </mxCell>
        <mxCell id="DDD5SIHI0R4ACzv8bi50-59" value="" style="endArrow=none;html=1;rounded=0;exitX=0.609;exitY=0.978;exitDx=0;exitDy=0;exitPerimeter=0;entryX=0.611;entryY=-0.041;entryDx=0;entryDy=0;entryPerimeter=0;" edge="1" parent="DDD5SIHI0R4ACzv8bi50-57" source="DDD5SIHI0R4ACzv8bi50-80" target="DDD5SIHI0R4ACzv8bi50-58">
          <mxGeometry width="50" height="50" relative="1" as="geometry">
            <mxPoint x="220" y="210" as="sourcePoint" />
            <mxPoint x="219" y="30" as="targetPoint" />
          </mxGeometry>
        </mxCell>
        <mxCell id="DDD5SIHI0R4ACzv8bi50-60" value="PK, FK&amp;nbsp; &amp;nbsp; &amp;nbsp; &amp;nbsp; FT_Customer_ID&amp;nbsp; &amp;nbsp; &amp;nbsp; &amp;nbsp; &amp;nbsp; &amp;nbsp; &amp;nbsp; &amp;nbsp; &amp;nbsp; &amp;nbsp; &amp;nbsp; &amp;nbsp; &amp;nbsp; &amp;nbsp; &amp;nbsp; &amp;nbsp;VARCHAR2 (10BYTE)&lt;br&gt;&amp;nbsp; &amp;nbsp; &amp;nbsp; &amp;nbsp; &amp;nbsp; &amp;nbsp; &amp;nbsp; &amp;nbsp; &amp;nbsp; &amp;nbsp; &amp;nbsp; &amp;nbsp; &amp;nbsp; &amp;nbsp; &amp;nbsp;&amp;nbsp;" style="text;strokeColor=none;fillColor=none;spacingLeft=4;spacingRight=4;overflow=hidden;rotatable=0;points=[[0,0.5],[1,0.5]];portConstraint=eastwest;fontSize=12;whiteSpace=wrap;html=1;" vertex="1" parent="DDD5SIHI0R4ACzv8bi50-57">
          <mxGeometry y="56" width="420" height="30" as="geometry" />
        </mxCell>
        <mxCell id="DDD5SIHI0R4ACzv8bi50-61" value="" style="endArrow=none;html=1;rounded=0;" edge="1" parent="DDD5SIHI0R4ACzv8bi50-57">
          <mxGeometry width="50" height="50" relative="1" as="geometry">
            <mxPoint x="60" y="280" as="sourcePoint" />
            <mxPoint x="60" y="26" as="targetPoint" />
          </mxGeometry>
        </mxCell>
        <mxCell id="DDD5SIHI0R4ACzv8bi50-62" value="PK, FK&amp;nbsp; &amp;nbsp; &amp;nbsp; &amp;nbsp; FT_Time_ID&amp;nbsp; &amp;nbsp; &amp;nbsp; &amp;nbsp; &amp;nbsp; &amp;nbsp; &amp;nbsp; &amp;nbsp; &amp;nbsp; &amp;nbsp; &amp;nbsp; &amp;nbsp; &amp;nbsp; &amp;nbsp; &amp;nbsp; &amp;nbsp; &amp;nbsp; &amp;nbsp; &amp;nbsp; &amp;nbsp;DATE" style="text;strokeColor=none;fillColor=none;spacingLeft=4;spacingRight=4;overflow=hidden;rotatable=0;points=[[0,0.5],[1,0.5]];portConstraint=eastwest;fontSize=12;whiteSpace=wrap;html=1;" vertex="1" parent="DDD5SIHI0R4ACzv8bi50-57">
          <mxGeometry y="86" width="420" height="30" as="geometry" />
        </mxCell>
        <mxCell id="DDD5SIHI0R4ACzv8bi50-63" value="&amp;nbsp; &amp;nbsp; &amp;nbsp; &amp;nbsp; &amp;nbsp; &amp;nbsp; &amp;nbsp; &amp;nbsp; &amp;nbsp; &amp;nbsp;FT_RevenueUSD&amp;nbsp; &amp;nbsp; &amp;nbsp; &amp;nbsp; &amp;nbsp; &amp;nbsp; &amp;nbsp; &amp;nbsp; &amp;nbsp; &amp;nbsp; &amp;nbsp; &amp;nbsp; &amp;nbsp; &amp;nbsp; &amp;nbsp; NUMBER (20,2)" style="text;strokeColor=none;fillColor=none;spacingLeft=4;spacingRight=4;overflow=hidden;rotatable=0;points=[[0,0.5],[1,0.5]];portConstraint=eastwest;fontSize=12;whiteSpace=wrap;html=1;" vertex="1" parent="DDD5SIHI0R4ACzv8bi50-57">
          <mxGeometry y="116" width="420" height="30" as="geometry" />
        </mxCell>
        <mxCell id="DDD5SIHI0R4ACzv8bi50-64" value="&amp;nbsp; &amp;nbsp; &amp;nbsp; &amp;nbsp; &amp;nbsp; &amp;nbsp; &amp;nbsp; &amp;nbsp; &amp;nbsp; &amp;nbsp;FT_DiscountUSD&amp;nbsp; &amp;nbsp; &amp;nbsp; &amp;nbsp; &amp;nbsp; &amp;nbsp; &amp;nbsp; &amp;nbsp; &amp;nbsp; &amp;nbsp; &amp;nbsp; &amp;nbsp; &amp;nbsp; &amp;nbsp; &amp;nbsp; NUMBER (20,2)" style="text;strokeColor=none;fillColor=none;spacingLeft=4;spacingRight=4;overflow=hidden;rotatable=0;points=[[0,0.5],[1,0.5]];portConstraint=eastwest;fontSize=12;whiteSpace=wrap;html=1;" vertex="1" parent="DDD5SIHI0R4ACzv8bi50-57">
          <mxGeometry y="146" width="420" height="30" as="geometry" />
        </mxCell>
        <mxCell id="DDD5SIHI0R4ACzv8bi50-65" value="&amp;nbsp; &amp;nbsp; &amp;nbsp; &amp;nbsp; &amp;nbsp; &amp;nbsp; &amp;nbsp; &amp;nbsp; &amp;nbsp; &amp;nbsp;FT_CostOfGoodsSoldUSD&amp;nbsp; &amp;nbsp; &amp;nbsp; &amp;nbsp; &amp;nbsp; &amp;nbsp; &amp;nbsp; &amp;nbsp;NUMBER (20,2)" style="text;strokeColor=none;fillColor=none;spacingLeft=4;spacingRight=4;overflow=hidden;rotatable=0;points=[[0,0.5],[1,0.5]];portConstraint=eastwest;fontSize=12;whiteSpace=wrap;html=1;" vertex="1" parent="DDD5SIHI0R4ACzv8bi50-57">
          <mxGeometry y="176" width="420" height="34" as="geometry" />
        </mxCell>
        <mxCell id="DDD5SIHI0R4ACzv8bi50-78" value="&amp;nbsp; &amp;nbsp; &amp;nbsp; &amp;nbsp; &amp;nbsp; &amp;nbsp; &amp;nbsp; &amp;nbsp; &amp;nbsp; &amp;nbsp;FT_SalesQuantity&amp;nbsp; &amp;nbsp; &amp;nbsp; &amp;nbsp; &amp;nbsp; &amp;nbsp; &amp;nbsp; &amp;nbsp; &amp;nbsp; &amp;nbsp; &amp;nbsp; &amp;nbsp; &amp;nbsp; &amp;nbsp; &amp;nbsp;NUMBER (20,2)" style="text;strokeColor=none;fillColor=none;spacingLeft=4;spacingRight=4;overflow=hidden;rotatable=0;points=[[0,0.5],[1,0.5]];portConstraint=eastwest;fontSize=12;whiteSpace=wrap;html=1;" vertex="1" parent="DDD5SIHI0R4ACzv8bi50-57">
          <mxGeometry y="210" width="420" height="34" as="geometry" />
        </mxCell>
        <mxCell id="DDD5SIHI0R4ACzv8bi50-80" value="&lt;b&gt;&amp;nbsp; &amp;nbsp; &amp;nbsp; &amp;nbsp; &amp;nbsp; &amp;nbsp; &amp;nbsp; &amp;nbsp; &amp;nbsp; &amp;nbsp;FT_NoOfSalesOrders&amp;nbsp; &amp;nbsp; &amp;nbsp; &amp;nbsp; &amp;nbsp; &amp;nbsp; &amp;nbsp; &amp;nbsp; &amp;nbsp; &amp;nbsp; &amp;nbsp;NUMBER (20,2)&lt;/b&gt;" style="text;strokeColor=none;fillColor=none;spacingLeft=4;spacingRight=4;overflow=hidden;rotatable=0;points=[[0,0.5],[1,0.5]];portConstraint=eastwest;fontSize=12;whiteSpace=wrap;html=1;" vertex="1" parent="DDD5SIHI0R4ACzv8bi50-57">
          <mxGeometry y="244" width="420" height="34" as="geometry" />
        </mxCell>
        <mxCell id="DDD5SIHI0R4ACzv8bi50-82" value="WI2_WSA994_PRODUCT" style="swimlane;fontStyle=0;childLayout=stackLayout;horizontal=1;startSize=26;horizontalStack=0;resizeParent=1;resizeParentMax=0;resizeLast=0;collapsible=1;marginBottom=0;align=center;fontSize=14;fillColor=#FFD966;" vertex="1" parent="1">
          <mxGeometry x="110" y="294" width="420" height="210" as="geometry" />
        </mxCell>
        <mxCell id="DDD5SIHI0R4ACzv8bi50-83" value="PK&amp;nbsp; &amp;nbsp; &amp;nbsp; &amp;nbsp; &amp;nbsp; &amp;nbsp; &amp;nbsp; P_Product_ID&amp;nbsp; &amp;nbsp; &amp;nbsp; &amp;nbsp; &amp;nbsp; &amp;nbsp; &amp;nbsp; &amp;nbsp; &amp;nbsp; &amp;nbsp; &amp;nbsp; &amp;nbsp; &amp;nbsp; &amp;nbsp; &amp;nbsp; &amp;nbsp; &amp;nbsp; &amp;nbsp; VARCHAR2 (10BYTE)" style="text;strokeColor=none;fillColor=none;spacingLeft=4;spacingRight=4;overflow=hidden;rotatable=0;points=[[0,0.5],[1,0.5]];portConstraint=eastwest;fontSize=12;whiteSpace=wrap;html=1;" vertex="1" parent="DDD5SIHI0R4ACzv8bi50-82">
          <mxGeometry y="26" width="420" height="30" as="geometry" />
        </mxCell>
        <mxCell id="DDD5SIHI0R4ACzv8bi50-84" value="" style="endArrow=none;html=1;rounded=0;exitX=0.611;exitY=1;exitDx=0;exitDy=0;exitPerimeter=0;entryX=0.611;entryY=-0.041;entryDx=0;entryDy=0;entryPerimeter=0;" edge="1" parent="DDD5SIHI0R4ACzv8bi50-82" source="DDD5SIHI0R4ACzv8bi50-90" target="DDD5SIHI0R4ACzv8bi50-83">
          <mxGeometry width="50" height="50" relative="1" as="geometry">
            <mxPoint x="255.77999999999997" y="243.25199999999995" as="sourcePoint" />
            <mxPoint x="219" y="30" as="targetPoint" />
          </mxGeometry>
        </mxCell>
        <mxCell id="DDD5SIHI0R4ACzv8bi50-85" value="&amp;nbsp; &amp;nbsp; &amp;nbsp; &amp;nbsp; &amp;nbsp; &amp;nbsp; &amp;nbsp; &amp;nbsp; &amp;nbsp; &amp;nbsp;P_Division&amp;nbsp; &amp;nbsp; &amp;nbsp; &amp;nbsp; &amp;nbsp; &amp;nbsp; &amp;nbsp; &amp;nbsp; &amp;nbsp; &amp;nbsp; &amp;nbsp; &amp;nbsp; &amp;nbsp; &amp;nbsp; &amp;nbsp; &amp;nbsp; &amp;nbsp; &amp;nbsp; &amp;nbsp; &amp;nbsp; &amp;nbsp;VARCHAR2 (10BYTE)&lt;br&gt;&amp;nbsp; &amp;nbsp; &amp;nbsp; &amp;nbsp; &amp;nbsp; &amp;nbsp; &amp;nbsp; &amp;nbsp; &amp;nbsp; &amp;nbsp; &amp;nbsp; &amp;nbsp; &amp;nbsp; &amp;nbsp; &amp;nbsp;&amp;nbsp;" style="text;strokeColor=none;fillColor=none;spacingLeft=4;spacingRight=4;overflow=hidden;rotatable=0;points=[[0,0.5],[1,0.5]];portConstraint=eastwest;fontSize=12;whiteSpace=wrap;html=1;" vertex="1" parent="DDD5SIHI0R4ACzv8bi50-82">
          <mxGeometry y="56" width="420" height="30" as="geometry" />
        </mxCell>
        <mxCell id="DDD5SIHI0R4ACzv8bi50-86" value="" style="endArrow=none;html=1;rounded=0;exitX=0.142;exitY=0.935;exitDx=0;exitDy=0;exitPerimeter=0;" edge="1" parent="DDD5SIHI0R4ACzv8bi50-82" source="DDD5SIHI0R4ACzv8bi50-90">
          <mxGeometry width="50" height="50" relative="1" as="geometry">
            <mxPoint x="58.37999999999988" y="246.72000000000003" as="sourcePoint" />
            <mxPoint x="60" y="26" as="targetPoint" />
          </mxGeometry>
        </mxCell>
        <mxCell id="DDD5SIHI0R4ACzv8bi50-87" value="&amp;nbsp; &amp;nbsp; &amp;nbsp; &amp;nbsp; &amp;nbsp; &amp;nbsp; &amp;nbsp; &amp;nbsp; &amp;nbsp; &amp;nbsp;P_ProductCategory&amp;nbsp; &amp;nbsp; &amp;nbsp; &amp;nbsp; &amp;nbsp; &amp;nbsp; &amp;nbsp; &amp;nbsp; &amp;nbsp; &amp;nbsp; &amp;nbsp; &amp;nbsp; &amp;nbsp; &amp;nbsp;VARCHAR2 (10BYTE)" style="text;strokeColor=none;fillColor=none;spacingLeft=4;spacingRight=4;overflow=hidden;rotatable=0;points=[[0,0.5],[1,0.5]];portConstraint=eastwest;fontSize=12;whiteSpace=wrap;html=1;" vertex="1" parent="DDD5SIHI0R4ACzv8bi50-82">
          <mxGeometry y="86" width="420" height="30" as="geometry" />
        </mxCell>
        <mxCell id="DDD5SIHI0R4ACzv8bi50-88" value="&amp;nbsp; &amp;nbsp; &amp;nbsp; &amp;nbsp; &amp;nbsp; &amp;nbsp; &amp;nbsp; &amp;nbsp; &amp;nbsp; &amp;nbsp;P_ProductDescription&amp;nbsp; &amp;nbsp; &amp;nbsp; &amp;nbsp; &amp;nbsp; &amp;nbsp; &amp;nbsp; &amp;nbsp; &amp;nbsp; &amp;nbsp; &amp;nbsp; &amp;nbsp; VARCHAR2 (50BYTE)" style="text;strokeColor=none;fillColor=none;spacingLeft=4;spacingRight=4;overflow=hidden;rotatable=0;points=[[0,0.5],[1,0.5]];portConstraint=eastwest;fontSize=12;whiteSpace=wrap;html=1;" vertex="1" parent="DDD5SIHI0R4ACzv8bi50-82">
          <mxGeometry y="116" width="420" height="30" as="geometry" />
        </mxCell>
        <mxCell id="DDD5SIHI0R4ACzv8bi50-89" value="&lt;b&gt;&amp;nbsp; &amp;nbsp; &amp;nbsp; &amp;nbsp; &amp;nbsp; &amp;nbsp; &amp;nbsp; &amp;nbsp; &amp;nbsp; &amp;nbsp;P_SalesPrice&amp;nbsp; &amp;nbsp; &amp;nbsp; &amp;nbsp; &amp;nbsp; &amp;nbsp; &amp;nbsp; &amp;nbsp; &amp;nbsp; &amp;nbsp; &amp;nbsp; &amp;nbsp; &amp;nbsp; &amp;nbsp; &amp;nbsp; &amp;nbsp; &amp;nbsp; &amp;nbsp; NUMBER (10,2)&lt;/b&gt;" style="text;strokeColor=none;fillColor=none;spacingLeft=4;spacingRight=4;overflow=hidden;rotatable=0;points=[[0,0.5],[1,0.5]];portConstraint=eastwest;fontSize=12;whiteSpace=wrap;html=1;" vertex="1" parent="DDD5SIHI0R4ACzv8bi50-82">
          <mxGeometry y="146" width="420" height="30" as="geometry" />
        </mxCell>
        <mxCell id="DDD5SIHI0R4ACzv8bi50-90" value="&lt;b&gt;&amp;nbsp; &amp;nbsp; &amp;nbsp; &amp;nbsp; &amp;nbsp; &amp;nbsp; &amp;nbsp; &amp;nbsp; &amp;nbsp; &amp;nbsp;P_ProductionCost&amp;nbsp; &amp;nbsp; &amp;nbsp; &amp;nbsp; &amp;nbsp; &amp;nbsp; &amp;nbsp; &amp;nbsp; &amp;nbsp; &amp;nbsp; &amp;nbsp; &amp;nbsp; &amp;nbsp; &amp;nbsp;NUMBER (10,2)&lt;/b&gt;" style="text;strokeColor=none;fillColor=none;spacingLeft=4;spacingRight=4;overflow=hidden;rotatable=0;points=[[0,0.5],[1,0.5]];portConstraint=eastwest;fontSize=12;whiteSpace=wrap;html=1;" vertex="1" parent="DDD5SIHI0R4ACzv8bi50-82">
          <mxGeometry y="176" width="420" height="34" as="geometry" />
        </mxCell>
        <mxCell id="DDD5SIHI0R4ACzv8bi50-93" value="WI2_WSA994_CUSTOMER" style="swimlane;fontStyle=0;childLayout=stackLayout;horizontal=1;startSize=26;horizontalStack=0;resizeParent=1;resizeParentMax=0;resizeLast=0;collapsible=1;marginBottom=0;align=center;fontSize=14;fillColor=#FFD966;" vertex="1" parent="1">
          <mxGeometry x="1110" y="277" width="420" height="244" as="geometry" />
        </mxCell>
        <mxCell id="DDD5SIHI0R4ACzv8bi50-94" value="PK&amp;nbsp; &amp;nbsp; &amp;nbsp; &amp;nbsp; &amp;nbsp; &amp;nbsp; &amp;nbsp; C_Customer_ID&amp;nbsp; &amp;nbsp; &amp;nbsp; &amp;nbsp; &amp;nbsp; &amp;nbsp; &amp;nbsp; &amp;nbsp; &amp;nbsp; &amp;nbsp; &amp;nbsp; &amp;nbsp; &amp;nbsp; &amp;nbsp; &amp;nbsp; &amp;nbsp; &amp;nbsp; VARCHAR2 (10BYTE)" style="text;strokeColor=none;fillColor=none;spacingLeft=4;spacingRight=4;overflow=hidden;rotatable=0;points=[[0,0.5],[1,0.5]];portConstraint=eastwest;fontSize=12;whiteSpace=wrap;html=1;" vertex="1" parent="DDD5SIHI0R4ACzv8bi50-93">
          <mxGeometry y="26" width="420" height="30" as="geometry" />
        </mxCell>
        <mxCell id="DDD5SIHI0R4ACzv8bi50-95" value="" style="endArrow=none;html=1;rounded=0;exitX=0.61;exitY=0.979;exitDx=0;exitDy=0;exitPerimeter=0;entryX=0.611;entryY=-0.041;entryDx=0;entryDy=0;entryPerimeter=0;" edge="1" parent="DDD5SIHI0R4ACzv8bi50-93" source="DDD5SIHI0R4ACzv8bi50-102" target="DDD5SIHI0R4ACzv8bi50-94">
          <mxGeometry width="50" height="50" relative="1" as="geometry">
            <mxPoint x="255.77999999999997" y="243.25199999999995" as="sourcePoint" />
            <mxPoint x="219" y="30" as="targetPoint" />
          </mxGeometry>
        </mxCell>
        <mxCell id="DDD5SIHI0R4ACzv8bi50-96" value="&amp;nbsp; &amp;nbsp; &amp;nbsp; &amp;nbsp; &amp;nbsp; &amp;nbsp; &amp;nbsp; &amp;nbsp; &amp;nbsp; &amp;nbsp;C_Country&amp;nbsp; &amp;nbsp; &amp;nbsp; &amp;nbsp; &amp;nbsp; &amp;nbsp; &amp;nbsp; &amp;nbsp; &amp;nbsp; &amp;nbsp; &amp;nbsp; &amp;nbsp; &amp;nbsp; &amp;nbsp; &amp;nbsp; &amp;nbsp; &amp;nbsp; &amp;nbsp; &amp;nbsp; &amp;nbsp; &amp;nbsp; VARCHAR2 (50BYTE)&lt;br&gt;&amp;nbsp; &amp;nbsp; &amp;nbsp; &amp;nbsp; &amp;nbsp; &amp;nbsp; &amp;nbsp; &amp;nbsp; &amp;nbsp; &amp;nbsp; &amp;nbsp; &amp;nbsp; &amp;nbsp; &amp;nbsp; &amp;nbsp;&amp;nbsp;" style="text;strokeColor=none;fillColor=none;spacingLeft=4;spacingRight=4;overflow=hidden;rotatable=0;points=[[0,0.5],[1,0.5]];portConstraint=eastwest;fontSize=12;whiteSpace=wrap;html=1;" vertex="1" parent="DDD5SIHI0R4ACzv8bi50-93">
          <mxGeometry y="56" width="420" height="30" as="geometry" />
        </mxCell>
        <mxCell id="DDD5SIHI0R4ACzv8bi50-97" value="" style="endArrow=none;html=1;rounded=0;exitX=0.143;exitY=1.046;exitDx=0;exitDy=0;exitPerimeter=0;" edge="1" parent="DDD5SIHI0R4ACzv8bi50-93" source="DDD5SIHI0R4ACzv8bi50-102">
          <mxGeometry width="50" height="50" relative="1" as="geometry">
            <mxPoint x="58.37999999999988" y="246.72000000000003" as="sourcePoint" />
            <mxPoint x="60" y="26" as="targetPoint" />
          </mxGeometry>
        </mxCell>
        <mxCell id="DDD5SIHI0R4ACzv8bi50-98" value="&amp;nbsp; &amp;nbsp; &amp;nbsp; &amp;nbsp; &amp;nbsp; &amp;nbsp; &amp;nbsp; &amp;nbsp; &amp;nbsp; &amp;nbsp;C_SalesOrg&amp;nbsp; &amp;nbsp; &amp;nbsp; &amp;nbsp; &amp;nbsp; &amp;nbsp; &amp;nbsp; &amp;nbsp; &amp;nbsp; &amp;nbsp; &amp;nbsp; &amp;nbsp; &amp;nbsp; &amp;nbsp; &amp;nbsp; &amp;nbsp; &amp;nbsp; &amp;nbsp; &amp;nbsp; &amp;nbsp; VARCHAR2 (50BYTE)" style="text;strokeColor=none;fillColor=none;spacingLeft=4;spacingRight=4;overflow=hidden;rotatable=0;points=[[0,0.5],[1,0.5]];portConstraint=eastwest;fontSize=12;whiteSpace=wrap;html=1;" vertex="1" parent="DDD5SIHI0R4ACzv8bi50-93">
          <mxGeometry y="86" width="420" height="30" as="geometry" />
        </mxCell>
        <mxCell id="DDD5SIHI0R4ACzv8bi50-99" value="&amp;nbsp; &amp;nbsp; &amp;nbsp; &amp;nbsp; &amp;nbsp; &amp;nbsp; &amp;nbsp; &amp;nbsp; &amp;nbsp; &amp;nbsp;C_City&amp;nbsp; &amp;nbsp; &amp;nbsp; &amp;nbsp; &amp;nbsp; &amp;nbsp; &amp;nbsp; &amp;nbsp; &amp;nbsp; &amp;nbsp; &amp;nbsp; &amp;nbsp; &amp;nbsp; &amp;nbsp; &amp;nbsp; &amp;nbsp; &amp;nbsp; &amp;nbsp; &amp;nbsp; &amp;nbsp; &amp;nbsp; &amp;nbsp; &amp;nbsp; &amp;nbsp; VARCHAR2 (20BYTE)" style="text;strokeColor=none;fillColor=none;spacingLeft=4;spacingRight=4;overflow=hidden;rotatable=0;points=[[0,0.5],[1,0.5]];portConstraint=eastwest;fontSize=12;whiteSpace=wrap;html=1;" vertex="1" parent="DDD5SIHI0R4ACzv8bi50-93">
          <mxGeometry y="116" width="420" height="30" as="geometry" />
        </mxCell>
        <mxCell id="DDD5SIHI0R4ACzv8bi50-100" value="&lt;b&gt;&amp;nbsp; &amp;nbsp; &amp;nbsp; &amp;nbsp; &amp;nbsp; &amp;nbsp; &amp;nbsp; &amp;nbsp; &amp;nbsp; &amp;nbsp;&lt;/b&gt;C_CustomerDescription&lt;b&gt;&amp;nbsp; &amp;nbsp; &amp;nbsp; &amp;nbsp; &amp;nbsp; &amp;nbsp; &amp;nbsp; &amp;nbsp; &amp;nbsp; &amp;nbsp; &amp;nbsp;&lt;/b&gt;VARCHAR2 (50BYTE)" style="text;strokeColor=none;fillColor=none;spacingLeft=4;spacingRight=4;overflow=hidden;rotatable=0;points=[[0,0.5],[1,0.5]];portConstraint=eastwest;fontSize=12;whiteSpace=wrap;html=1;" vertex="1" parent="DDD5SIHI0R4ACzv8bi50-93">
          <mxGeometry y="146" width="420" height="30" as="geometry" />
        </mxCell>
        <mxCell id="DDD5SIHI0R4ACzv8bi50-101" value="&lt;b&gt;&amp;nbsp; &amp;nbsp; &amp;nbsp; &amp;nbsp; &amp;nbsp; &amp;nbsp; &amp;nbsp; &amp;nbsp; &amp;nbsp; &amp;nbsp;C_ValidTo&amp;nbsp; &amp;nbsp; &amp;nbsp; &amp;nbsp; &amp;nbsp; &amp;nbsp; &amp;nbsp; &amp;nbsp; &amp;nbsp; &amp;nbsp; &amp;nbsp; &amp;nbsp; &amp;nbsp; &amp;nbsp; &amp;nbsp; &amp;nbsp; &amp;nbsp; &amp;nbsp; &amp;nbsp; &amp;nbsp; &amp;nbsp; DATE&lt;/b&gt;" style="text;strokeColor=none;fillColor=none;spacingLeft=4;spacingRight=4;overflow=hidden;rotatable=0;points=[[0,0.5],[1,0.5]];portConstraint=eastwest;fontSize=12;whiteSpace=wrap;html=1;" vertex="1" parent="DDD5SIHI0R4ACzv8bi50-93">
          <mxGeometry y="176" width="420" height="34" as="geometry" />
        </mxCell>
        <mxCell id="DDD5SIHI0R4ACzv8bi50-102" value="&lt;b&gt;PK&amp;nbsp; &amp;nbsp; &amp;nbsp; &amp;nbsp; &amp;nbsp; &amp;nbsp; &amp;nbsp; C_ValidTo&amp;nbsp; &amp;nbsp; &amp;nbsp; &amp;nbsp; &amp;nbsp; &amp;nbsp; &amp;nbsp; &amp;nbsp; &amp;nbsp; &amp;nbsp; &amp;nbsp; &amp;nbsp; &amp;nbsp; &amp;nbsp; &amp;nbsp; &amp;nbsp; &amp;nbsp; &amp;nbsp; &amp;nbsp; &amp;nbsp; &amp;nbsp; DATE&lt;/b&gt;" style="text;strokeColor=none;fillColor=none;spacingLeft=4;spacingRight=4;overflow=hidden;rotatable=0;points=[[0,0.5],[1,0.5]];portConstraint=eastwest;fontSize=12;whiteSpace=wrap;html=1;" vertex="1" parent="DDD5SIHI0R4ACzv8bi50-93">
          <mxGeometry y="210" width="420" height="34" as="geometry" />
        </mxCell>
        <mxCell id="DDD5SIHI0R4ACzv8bi50-107" value="" style="endArrow=none;html=1;rounded=0;entryX=-0.002;entryY=0.792;entryDx=0;entryDy=0;entryPerimeter=0;" edge="1" parent="1" target="DDD5SIHI0R4ACzv8bi50-63">
          <mxGeometry width="50" height="50" relative="1" as="geometry">
            <mxPoint x="530" y="400" as="sourcePoint" />
            <mxPoint x="560" y="410" as="targetPoint" />
            <Array as="points" />
          </mxGeometry>
        </mxCell>
        <mxCell id="DDD5SIHI0R4ACzv8bi50-111" value="AGG_WI2_WSA994_FACTCONSTELLATIONTABLE" style="swimlane;fontStyle=0;childLayout=stackLayout;horizontal=1;startSize=26;horizontalStack=0;resizeParent=1;resizeParentMax=0;resizeLast=0;collapsible=1;marginBottom=0;align=center;fontSize=14;fillColor=#FFD966;" vertex="1" parent="1">
          <mxGeometry x="617" y="670" width="420" height="376" as="geometry" />
        </mxCell>
        <mxCell id="DDD5SIHI0R4ACzv8bi50-112" value="PK&amp;nbsp; &amp;nbsp; &amp;nbsp; &amp;nbsp; &amp;nbsp; &amp;nbsp; &amp;nbsp; AGG_ProductCategory&amp;nbsp; &amp;nbsp; &amp;nbsp; &amp;nbsp; &amp;nbsp; &amp;nbsp; &amp;nbsp; &amp;nbsp; &amp;nbsp; &amp;nbsp; &amp;nbsp; VARCHAR2 (10BYTE)" style="text;strokeColor=none;fillColor=none;spacingLeft=4;spacingRight=4;overflow=hidden;rotatable=0;points=[[0,0.5],[1,0.5]];portConstraint=eastwest;fontSize=12;whiteSpace=wrap;html=1;" vertex="1" parent="DDD5SIHI0R4ACzv8bi50-111">
          <mxGeometry y="26" width="420" height="30" as="geometry" />
        </mxCell>
        <mxCell id="DDD5SIHI0R4ACzv8bi50-113" value="" style="endArrow=none;html=1;rounded=0;entryX=0.611;entryY=-0.041;entryDx=0;entryDy=0;entryPerimeter=0;exitX=0.612;exitY=1.003;exitDx=0;exitDy=0;exitPerimeter=0;" edge="1" parent="DDD5SIHI0R4ACzv8bi50-111" source="DDD5SIHI0R4ACzv8bi50-129" target="DDD5SIHI0R4ACzv8bi50-112">
          <mxGeometry width="50" height="50" relative="1" as="geometry">
            <mxPoint x="257" y="340" as="sourcePoint" />
            <mxPoint x="219" y="30" as="targetPoint" />
          </mxGeometry>
        </mxCell>
        <mxCell id="DDD5SIHI0R4ACzv8bi50-114" value="PK&amp;nbsp; &amp;nbsp; &amp;nbsp; &amp;nbsp; &amp;nbsp; &amp;nbsp; &amp;nbsp; AGG_Division&amp;nbsp; &amp;nbsp; &amp;nbsp; &amp;nbsp; &amp;nbsp; &amp;nbsp; &amp;nbsp; &amp;nbsp; &amp;nbsp; &amp;nbsp; &amp;nbsp; &amp;nbsp; &amp;nbsp; &amp;nbsp; &amp;nbsp; &amp;nbsp; &amp;nbsp; &amp;nbsp; &amp;nbsp;VARCHAR2 (10BYTE)&lt;br&gt;&amp;nbsp; &amp;nbsp; &amp;nbsp; &amp;nbsp; &amp;nbsp; &amp;nbsp; &amp;nbsp; &amp;nbsp; &amp;nbsp; &amp;nbsp; &amp;nbsp; &amp;nbsp; &amp;nbsp; &amp;nbsp; &amp;nbsp;&amp;nbsp;" style="text;strokeColor=none;fillColor=none;spacingLeft=4;spacingRight=4;overflow=hidden;rotatable=0;points=[[0,0.5],[1,0.5]];portConstraint=eastwest;fontSize=12;whiteSpace=wrap;html=1;" vertex="1" parent="DDD5SIHI0R4ACzv8bi50-111">
          <mxGeometry y="56" width="420" height="30" as="geometry" />
        </mxCell>
        <mxCell id="DDD5SIHI0R4ACzv8bi50-115" value="" style="endArrow=none;html=1;rounded=0;exitX=0.144;exitY=0.997;exitDx=0;exitDy=0;exitPerimeter=0;" edge="1" parent="DDD5SIHI0R4ACzv8bi50-111" source="DDD5SIHI0R4ACzv8bi50-129">
          <mxGeometry width="50" height="50" relative="1" as="geometry">
            <mxPoint x="60" y="370" as="sourcePoint" />
            <mxPoint x="60" y="26" as="targetPoint" />
          </mxGeometry>
        </mxCell>
        <mxCell id="DDD5SIHI0R4ACzv8bi50-116" value="PK&amp;nbsp; &amp;nbsp; &amp;nbsp; &amp;nbsp; &amp;nbsp; &amp;nbsp; &amp;nbsp; AGG_Month&amp;nbsp; &amp;nbsp; &amp;nbsp; &amp;nbsp; &amp;nbsp; &amp;nbsp; &amp;nbsp; &amp;nbsp; &amp;nbsp; &amp;nbsp; &amp;nbsp; &amp;nbsp; &amp;nbsp; &amp;nbsp; &amp;nbsp; &amp;nbsp; &amp;nbsp; &amp;nbsp; &amp;nbsp; &amp;nbsp;INTEGER" style="text;strokeColor=none;fillColor=none;spacingLeft=4;spacingRight=4;overflow=hidden;rotatable=0;points=[[0,0.5],[1,0.5]];portConstraint=eastwest;fontSize=12;whiteSpace=wrap;html=1;" vertex="1" parent="DDD5SIHI0R4ACzv8bi50-111">
          <mxGeometry y="86" width="420" height="30" as="geometry" />
        </mxCell>
        <mxCell id="DDD5SIHI0R4ACzv8bi50-117" value="PK&amp;nbsp; &amp;nbsp; &amp;nbsp; &amp;nbsp; &amp;nbsp; &amp;nbsp; &amp;nbsp; AGG_Year&amp;nbsp; &amp;nbsp; &amp;nbsp; &amp;nbsp; &amp;nbsp; &amp;nbsp; &amp;nbsp; &amp;nbsp; &amp;nbsp; &amp;nbsp; &amp;nbsp; &amp;nbsp; &amp;nbsp; &amp;nbsp; &amp;nbsp; &amp;nbsp; &amp;nbsp; &amp;nbsp; &amp;nbsp; &amp;nbsp; &amp;nbsp; INTEGER" style="text;strokeColor=none;fillColor=none;spacingLeft=4;spacingRight=4;overflow=hidden;rotatable=0;points=[[0,0.5],[1,0.5]];portConstraint=eastwest;fontSize=12;whiteSpace=wrap;html=1;" vertex="1" parent="DDD5SIHI0R4ACzv8bi50-111">
          <mxGeometry y="116" width="420" height="30" as="geometry" />
        </mxCell>
        <mxCell id="DDD5SIHI0R4ACzv8bi50-118" value="PK&amp;nbsp; &amp;nbsp; &amp;nbsp; &amp;nbsp; &amp;nbsp; &amp;nbsp; &amp;nbsp; AGG_Customer_ID&amp;nbsp; &amp;nbsp; &amp;nbsp; &amp;nbsp; &amp;nbsp; &amp;nbsp; &amp;nbsp; &amp;nbsp; &amp;nbsp; &amp;nbsp; &amp;nbsp; &amp;nbsp; &amp;nbsp; &amp;nbsp; VARCHAR2 (10BYTE)" style="text;strokeColor=none;fillColor=none;spacingLeft=4;spacingRight=4;overflow=hidden;rotatable=0;points=[[0,0.5],[1,0.5]];portConstraint=eastwest;fontSize=12;whiteSpace=wrap;html=1;" vertex="1" parent="DDD5SIHI0R4ACzv8bi50-111">
          <mxGeometry y="146" width="420" height="30" as="geometry" />
        </mxCell>
        <mxCell id="DDD5SIHI0R4ACzv8bi50-131" value="&amp;nbsp; &amp;nbsp; &amp;nbsp; &amp;nbsp; &amp;nbsp; &amp;nbsp; &amp;nbsp; &amp;nbsp; &amp;nbsp; &amp;nbsp;AGG_Fact_Count&amp;nbsp; &amp;nbsp; &amp;nbsp; &amp;nbsp; &amp;nbsp; &amp;nbsp; &amp;nbsp; &amp;nbsp; &amp;nbsp; &amp;nbsp; &amp;nbsp; &amp;nbsp; &amp;nbsp; &amp;nbsp; &amp;nbsp; INTEGER" style="text;strokeColor=none;fillColor=none;spacingLeft=4;spacingRight=4;overflow=hidden;rotatable=0;points=[[0,0.5],[1,0.5]];portConstraint=eastwest;fontSize=12;whiteSpace=wrap;html=1;" vertex="1" parent="DDD5SIHI0R4ACzv8bi50-111">
          <mxGeometry y="176" width="420" height="30" as="geometry" />
        </mxCell>
        <mxCell id="DDD5SIHI0R4ACzv8bi50-119" value="&amp;nbsp; &amp;nbsp; &amp;nbsp; &amp;nbsp; &amp;nbsp; &amp;nbsp; &amp;nbsp; &amp;nbsp; &amp;nbsp; &amp;nbsp;AGG_RevenueUSD&amp;nbsp; &amp;nbsp; &amp;nbsp; &amp;nbsp; &amp;nbsp; &amp;nbsp; &amp;nbsp; &amp;nbsp; &amp;nbsp; &amp;nbsp; &amp;nbsp; &amp;nbsp; &amp;nbsp; &amp;nbsp;NUMBER (20,2)" style="text;strokeColor=none;fillColor=none;spacingLeft=4;spacingRight=4;overflow=hidden;rotatable=0;points=[[0,0.5],[1,0.5]];portConstraint=eastwest;fontSize=12;whiteSpace=wrap;html=1;" vertex="1" parent="DDD5SIHI0R4ACzv8bi50-111">
          <mxGeometry y="206" width="420" height="34" as="geometry" />
        </mxCell>
        <mxCell id="DDD5SIHI0R4ACzv8bi50-120" value="&amp;nbsp; &amp;nbsp; &amp;nbsp; &amp;nbsp; &amp;nbsp; &amp;nbsp; &amp;nbsp; &amp;nbsp; &amp;nbsp; &amp;nbsp;AGG_DiscountUSD&amp;nbsp; &amp;nbsp; &amp;nbsp; &amp;nbsp; &amp;nbsp; &amp;nbsp; &amp;nbsp; &amp;nbsp; &amp;nbsp; &amp;nbsp; &amp;nbsp; &amp;nbsp; &amp;nbsp; &amp;nbsp;NUMBER (20,2)" style="text;strokeColor=none;fillColor=none;spacingLeft=4;spacingRight=4;overflow=hidden;rotatable=0;points=[[0,0.5],[1,0.5]];portConstraint=eastwest;fontSize=12;whiteSpace=wrap;html=1;" vertex="1" parent="DDD5SIHI0R4ACzv8bi50-111">
          <mxGeometry y="240" width="420" height="34" as="geometry" />
        </mxCell>
        <mxCell id="DDD5SIHI0R4ACzv8bi50-127" value="&amp;nbsp; &amp;nbsp; &amp;nbsp; &amp;nbsp; &amp;nbsp; &amp;nbsp; &amp;nbsp; &amp;nbsp; &amp;nbsp; &amp;nbsp;AGG_CostOfGoodsSoldUSD&amp;nbsp; &amp;nbsp; &amp;nbsp; &amp;nbsp; &amp;nbsp; &amp;nbsp; NUMBER (20,2)" style="text;strokeColor=none;fillColor=none;spacingLeft=4;spacingRight=4;overflow=hidden;rotatable=0;points=[[0,0.5],[1,0.5]];portConstraint=eastwest;fontSize=12;whiteSpace=wrap;html=1;" vertex="1" parent="DDD5SIHI0R4ACzv8bi50-111">
          <mxGeometry y="274" width="420" height="34" as="geometry" />
        </mxCell>
        <mxCell id="DDD5SIHI0R4ACzv8bi50-128" value="&amp;nbsp; &amp;nbsp; &amp;nbsp; &amp;nbsp; &amp;nbsp; &amp;nbsp; &amp;nbsp; &amp;nbsp; &amp;nbsp; &amp;nbsp;AGG_SalesQuantity&amp;nbsp; &amp;nbsp; &amp;nbsp; &amp;nbsp; &amp;nbsp; &amp;nbsp; &amp;nbsp; &amp;nbsp; &amp;nbsp; &amp;nbsp; &amp;nbsp; &amp;nbsp; &amp;nbsp; &amp;nbsp;NUMBER (20,2)" style="text;strokeColor=none;fillColor=none;spacingLeft=4;spacingRight=4;overflow=hidden;rotatable=0;points=[[0,0.5],[1,0.5]];portConstraint=eastwest;fontSize=12;whiteSpace=wrap;html=1;" vertex="1" parent="DDD5SIHI0R4ACzv8bi50-111">
          <mxGeometry y="308" width="420" height="34" as="geometry" />
        </mxCell>
        <mxCell id="DDD5SIHI0R4ACzv8bi50-129" value="&amp;nbsp; &amp;nbsp; &amp;nbsp; &amp;nbsp; &amp;nbsp; &amp;nbsp; &amp;nbsp; &amp;nbsp; &amp;nbsp; &amp;nbsp;AGG_NoOfSalesOrders&amp;nbsp; &amp;nbsp; &amp;nbsp; &amp;nbsp; &amp;nbsp; &amp;nbsp; &amp;nbsp; &amp;nbsp; &amp;nbsp; &amp;nbsp; &amp;nbsp;NUMBER (20,2)" style="text;strokeColor=none;fillColor=none;spacingLeft=4;spacingRight=4;overflow=hidden;rotatable=0;points=[[0,0.5],[1,0.5]];portConstraint=eastwest;fontSize=12;whiteSpace=wrap;html=1;" vertex="1" parent="DDD5SIHI0R4ACzv8bi50-111">
          <mxGeometry y="342" width="420" height="34" as="geometry" />
        </mxCell>
        <mxCell id="DDD5SIHI0R4ACzv8bi50-122" value="*" style="text;html=1;strokeColor=none;fillColor=none;align=center;verticalAlign=middle;whiteSpace=wrap;rounded=0;" vertex="1" parent="1">
          <mxGeometry x="580" y="380" width="60" height="30" as="geometry" />
        </mxCell>
        <mxCell id="DDD5SIHI0R4ACzv8bi50-124" value="*" style="text;html=1;strokeColor=none;fillColor=none;align=center;verticalAlign=middle;whiteSpace=wrap;rounded=0;" vertex="1" parent="1">
          <mxGeometry x="1020" y="380" width="60" height="30" as="geometry" />
        </mxCell>
        <mxCell id="DDD5SIHI0R4ACzv8bi50-125" value="1" style="text;html=1;strokeColor=none;fillColor=none;align=center;verticalAlign=middle;whiteSpace=wrap;rounded=0;" vertex="1" parent="1">
          <mxGeometry x="510" y="370" width="60" height="30" as="geometry" />
        </mxCell>
        <mxCell id="DDD5SIHI0R4ACzv8bi50-126" value="1" style="text;html=1;strokeColor=none;fillColor=none;align=center;verticalAlign=middle;whiteSpace=wrap;rounded=0;" vertex="1" parent="1">
          <mxGeometry x="1070" y="370" width="60" height="30" as="geometry" />
        </mxCell>
        <mxCell id="DDD5SIHI0R4ACzv8bi50-134" value="" style="endArrow=none;html=1;rounded=0;" edge="1" parent="1">
          <mxGeometry width="50" height="50" relative="1" as="geometry">
            <mxPoint x="340" y="840" as="sourcePoint" />
            <mxPoint x="617" y="840" as="targetPoint" />
          </mxGeometry>
        </mxCell>
        <mxCell id="DDD5SIHI0R4ACzv8bi50-135" value="" style="endArrow=none;html=1;rounded=0;entryX=0.547;entryY=1.079;entryDx=0;entryDy=0;entryPerimeter=0;" edge="1" parent="1" target="DDD5SIHI0R4ACzv8bi50-90">
          <mxGeometry width="50" height="50" relative="1" as="geometry">
            <mxPoint x="340" y="840" as="sourcePoint" />
            <mxPoint x="320" y="560" as="targetPoint" />
          </mxGeometry>
        </mxCell>
        <mxCell id="DDD5SIHI0R4ACzv8bi50-136" value="" style="endArrow=none;html=1;rounded=0;" edge="1" parent="1">
          <mxGeometry width="50" height="50" relative="1" as="geometry">
            <mxPoint x="1037" y="840" as="sourcePoint" />
            <mxPoint x="1320" y="840" as="targetPoint" />
          </mxGeometry>
        </mxCell>
        <mxCell id="DDD5SIHI0R4ACzv8bi50-137" value="" style="endArrow=none;html=1;rounded=0;entryX=0.498;entryY=0.971;entryDx=0;entryDy=0;entryPerimeter=0;" edge="1" parent="1" target="DDD5SIHI0R4ACzv8bi50-102">
          <mxGeometry width="50" height="50" relative="1" as="geometry">
            <mxPoint x="1320" y="840" as="sourcePoint" />
            <mxPoint x="1379.17" y="530" as="targetPoint" />
          </mxGeometry>
        </mxCell>
        <mxCell id="DDD5SIHI0R4ACzv8bi50-138" value="*" style="text;html=1;strokeColor=none;fillColor=none;align=center;verticalAlign=middle;whiteSpace=wrap;rounded=0;" vertex="1" parent="1">
          <mxGeometry x="1037" y="810" width="60" height="30" as="geometry" />
        </mxCell>
        <mxCell id="DDD5SIHI0R4ACzv8bi50-141" value="*" style="text;html=1;strokeColor=none;fillColor=none;align=center;verticalAlign=middle;whiteSpace=wrap;rounded=0;" vertex="1" parent="1">
          <mxGeometry x="557" y="810" width="60" height="30" as="geometry" />
        </mxCell>
        <mxCell id="DDD5SIHI0R4ACzv8bi50-143" value="1" style="text;html=1;strokeColor=none;fillColor=none;align=center;verticalAlign=middle;whiteSpace=wrap;rounded=0;" vertex="1" parent="1">
          <mxGeometry x="330" y="504" width="60" height="30" as="geometry" />
        </mxCell>
        <mxCell id="DDD5SIHI0R4ACzv8bi50-144" value="1" style="text;html=1;strokeColor=none;fillColor=none;align=center;verticalAlign=middle;whiteSpace=wrap;rounded=0;" vertex="1" parent="1">
          <mxGeometry x="1310" y="521" width="60" height="30" as="geometry" />
        </mxCell>
        <mxCell id="DDD5SIHI0R4ACzv8bi50-146" value="" style="endArrow=none;html=1;rounded=0;" edge="1" parent="1">
          <mxGeometry width="50" height="50" relative="1" as="geometry">
            <mxPoint x="1037" y="398.44" as="sourcePoint" />
            <mxPoint x="1107" y="398.44" as="targetPoint" />
          </mxGeometry>
        </mxCell>
        <mxCell id="DDD5SIHI0R4ACzv8bi50-150" value="" style="verticalLabelPosition=bottom;verticalAlign=top;html=1;shape=mxgraph.basic.patternFillRect;fillStyle=grid;step=5;fillStrokeWidth=0.2;fillStrokeColor=#dddddd;" vertex="1" parent="1">
          <mxGeometry x="1654" y="1180" width="120" height="60" as="geometry" />
        </mxCell>
        <mxCell id="DDD5SIHI0R4ACzv8bi50-151" value="" style="verticalLabelPosition=bottom;verticalAlign=top;html=1;shape=mxgraph.basic.patternFillRect;fillStyle=diagRev;step=5;fillStrokeWidth=0.2;fillStrokeColor=#dddddd;" vertex="1" parent="1">
          <mxGeometry x="-120" y="1220" width="120" height="60" as="geometry" />
        </mxCell>
        <mxCell id="DDD5SIHI0R4ACzv8bi50-152" value="" style="verticalLabelPosition=bottom;verticalAlign=top;html=1;shape=mxgraph.basic.patternFillRect;fillStyle=diag;step=5;fillStrokeWidth=0.2;fillStrokeColor=#dddddd;" vertex="1" parent="1">
          <mxGeometry x="760" y="-60" width="120" height="60" as="geometry" />
        </mxCell>
      </root>
    </mxGraphModel>
  </diagram>
</mxfile>
